<svg width="35" height="40" viewBox="0 0 35 40" fill="none" xmlns="http://www.w3.org/2000/svg">
<g clip-path="url(#clip0_34_14)">
<path d="M31.25 2.5H3.75C2.75544 2.5 1.80161 2.89509 1.09835 3.59835C0.395088 4.30161 0 5.25544 0 6.25L0 33.75C0 34.7446 0.395088 35.6984 1.09835 36.4017C1.80161 37.1049 2.75544 37.5 3.75 37.5H14.4727V25.6008H9.55078V20H14.4727V15.7313C14.4727 10.8758 17.3633 8.19375 21.7906 8.19375C23.9109 8.19375 26.1281 8.57188 26.1281 8.57188V13.3375H23.6852C21.2781 13.3375 20.5273 14.8312 20.5273 16.3633V20H25.9008L25.0414 25.6008H20.5273V37.5H31.25C32.2446 37.5 33.1984 37.1049 33.9017 36.4017C34.6049 35.6984 35 34.7446 35 33.75V6.25C35 5.25544 34.6049 4.30161 33.9017 3.59835C33.1984 2.89509 32.2446 2.5 31.25 2.5Z" fill="black"/>
</g>
<defs>
<clipPath id="clip0_34_14">
<rect width="35" height="40" fill="white"/>
</clipPath>
</defs>
</svg>
