<svg width="35" height="40" viewBox="0 0 35 40" fill="none" xmlns="http://www.w3.org/2000/svg">
<path d="M7.83437 35.0002H0.578125V11.633H7.83437V35.0002ZM4.20234 8.44551C1.88203 8.44551 0 6.52363 0 4.20332C1.66078e-08 3.08879 0.442746 2.01991 1.23084 1.23181C2.01893 0.443722 3.08781 0.000976562 4.20234 0.000976562C5.31687 0.000976562 6.38576 0.443722 7.17385 1.23181C7.96194 2.01991 8.40469 3.08879 8.40469 4.20332C8.40469 6.52363 6.52188 8.44551 4.20234 8.44551ZM34.9922 35.0002H27.7516V23.6252C27.7516 20.9143 27.6969 17.4377 23.9789 17.4377C20.2062 17.4377 19.6281 20.383 19.6281 23.4299V35.0002H12.3797V11.633H19.3391V14.8205H19.4406C20.4094 12.9846 22.7758 11.0471 26.3063 11.0471C33.65 11.0471 35 15.883 35 22.1643V35.0002H34.9922Z" fill="black"/>
</svg>
