<svg version="1.1" xmlns="http://www.w3.org/2000/svg" xmlns:xlink="http://www.w3.org/1999/xlink" x="0px" y="0px" fill="rgba(221,51,51,0.3)"
	 width="8px" height="8px" viewBox="0 0 8 8" enable-background="new 0 0 8 8" xml:space="preserve">
<path d="M1,0H0v1C0.553,1,1,0.552,1,0z"/>
<path d="M8,1V0H7C7,0.552,7.447,1,8,1z"/>
<path d="M7,4c0,0.552,0.447,1,1,1V3C7.447,3,7,3.448,7,4z"/>
<path d="M0,7v1h1C1,7.448,0.553,7,0,7z"/>
<path d="M7,8h1V7C7.447,7,7,7.448,7,8z"/>
<circle cx="4" cy="2" r="1"/>
<circle cx="4" cy="6" r="1"/>
<path d="M1,4c0-0.552-0.447-1-1-1v2C0.553,5,1,4.552,1,4z"/>
</svg>