<svg width="17" height="17" viewBox="0 0 17 17" fill="none" xmlns="http://www.w3.org/2000/svg">
<path d="M0 4.25C0 3.07627 0.95127 2.125 2.125 2.125H14.875C16.0471 2.125 17 3.07627 17 4.25V12.75C17 13.9221 16.0471 14.875 14.875 14.875H2.125C0.95127 14.875 0 13.9221 0 12.75V4.25ZM1.59375 4.25V4.98379L7.32129 9.68535C8.00527 10.2498 8.99473 10.2498 9.67871 9.68535L15.4062 4.98379V4.22012C15.4062 3.95781 15.1672 3.68887 14.875 3.68887H2.125C1.83148 3.68887 1.59375 3.95781 1.59375 4.22012V4.25ZM1.59375 7.0457V12.75C1.59375 13.0422 1.83148 13.2812 2.125 13.2812H14.875C15.1672 13.2812 15.4062 13.0422 15.4062 12.75V7.0457L10.6914 10.9172C9.41641 11.9631 7.58359 11.9631 6.27871 10.9172L1.59375 7.0457Z" fill="#E84945"/>
</svg>
